<svg xmlns="http://www.w3.org/2000/svg" version="1.1" xmlns:xlink="http://www.w3.org/1999/xlink" xmlns:svgjs="http://svgjs.dev/svgjs" width="100%" height="100%" viewBox="0 0 1000 600"><rect width="1000" height="600" x="0" y="0" fill="#eb2188"/><g><rect width="333.3333333333333" height="333.3333333333333" y="138.73359071265912" fill="#080a52" transform="matrix(1.0728569489057127,0,0,1.0728569489057127,0,-27.65077380753236)" x="116.51136779785159"/><path d="M250.72341857641138 379.82462301432946L170.54579707333474 255.5790050999321Q170.54579707333474 256.2026088227338 170.4567108272202 258.310983314111Q170.33792916573415 260.38966239011665 170.33792916573415 262.5871231276084Q170.33792916573415 264.7845838651001 170.33792916573415 266.7741766949913Q170.33792916573415 268.73407410951097 170.33792916573415 269.3576778323127L170.33792916573415 269.3576778323127Q170.33792916573415 282.9284826570927 170.96153288853586 296.5289828972442Q171.58513661133756 310.0997877220242 172.44630365711137 323.7596787929188Q173.27777528751363 337.4492652791849 173.90137901031534 351.2279380115654Q174.52498273311704 365.00661074394594 174.52498273311704 378.7852834763266L174.52498273311704 378.7852834763266L167.01204264412505 378.3695476611254Q166.8041747365245 374.39036200134314 166.26965725983732 367.2931577275522Q165.76483519852164 360.19595345376143 165.0224498142339 350.9012884424788Q164.28006442994615 341.60662343119617 163.44859279954386 330.9756647281957Q162.6171211691416 320.3150106098237 161.66686787725328 309.3574023377365Q160.7463100007365 298.3997940656493 160.12270627793478 287.7391399472773Q159.49910255513305 277.1081812442767 158.96458507844588 268.0213841405947Q158.4300676017587 258.9345870369127 158.22219969415815 251.92646900923637Q158.01433178655756 244.94804639693155 158.22219969415815 241.1767286447498L158.22219969415815 241.1767286447498Q158.22219969415815 238.68231375354296 160.12270627793478 237.0193704927384Q161.9935174463399 235.32673181656236 164.4879323375467 235.32673181656236L164.4879323375467 235.32673181656236Q167.01204264412505 235.32673181656236 170.24884291961962 236.48485301605123Q173.4856431951142 237.64297421554014 174.52498273311704 239.51378538394525L174.52498273311704 239.51378538394525L249.68407903840856 360.81955717656314Q249.68407903840856 351.2279380115654 249.17925697709288 340.15154807799223Q248.64473950040568 329.07515814441905 248.22900368520456 317.4048599034157Q247.81326787000341 305.70486624704074 247.69448620851736 293.9157863445513Q247.60539996240286 282.09701102669044 248.11022202371853 270.9315348470027Q248.64473950040568 259.76605866731495 250.2185965150957 249.75870368711617Q251.76275811441423 239.72165329154583 254.7026042361937 231.5851094797521L254.7026042361937 231.5851094797521Q257.61275494260167 230.54576994174926 259.30539361877777 230.4269882802632Q260.96833687958224 230.3379020341487 261.7998085099846 230.54576994174926Q262.6312801403868 230.75363784934981 262.7500618018729 231.5851094797521Q262.83914804798746 232.4165811101544 262.83914804798746 233.24805274055666L262.83914804798746 233.24805274055666Q262.83914804798746 233.6637885557578 262.83914804798746 234.4952601861601Q262.83914804798746 235.32673181656236 262.83914804798746 235.53459972416292L262.83914804798746 235.53459972416292Q262.4234122327863 236.81150258513784 261.88889475609915 240.13738910674695Q261.3840726947834 243.49297104372758 260.5526010643812 250.05565784083123Q259.72112943397883 256.64804005330643 259.0975257111771 267.0711308487064Q258.4442265730039 277.52391705947787 257.8206228502022 292.965533052663Q257.1970191274005 308.4071490458482 256.9000649736854 329.69876186722075Q256.5734154045988 351.0200701039649 256.78128331219943 379.4088871991283L256.78128331219943 379.4088871991283L250.72341857641138 379.82462301432946ZM272.22289930538454 330.76779682059515L272.22289930538454 330.76779682059515Q272.22289930538454 324.5020641772065 274.9548775195634 316.8703424267284Q277.65716031837087 309.23862067625043 282.3490359470694 302.6759338791468Q287.07060699113947 296.0835516666715 293.0096900654414 291.5995439455736Q298.94877313974337 287.1155362244756 305.42237369073257 287.1155362244756L305.42237369073257 287.1155362244756Q308.9858235353138 287.1155362244756 312.4304917184089 288.57061157767953Q315.87515990150405 290.0553823462551 319.11196017699865 292.43101557597583Q322.34876045249314 294.8363442210681 324.96195700518604 297.86527658896216Q327.57515355787893 300.8942089568561 329.0302289110829 304.2497908938368Q330.4853042642869 307.57567741544585 330.6040859257729 310.7233914448259Q330.69317217188745 313.84141005883447 328.82236100348234 316.12795704244076L328.82236100348234 316.12795704244076L284.75436459216166 324.29419626960595Q283.92289296175943 324.5020641772065 283.2992892389577 326.2540936841256Q282.675685516156 328.03581860641617 282.25994970095485 330.76779682059515Q281.8442138857537 333.4700796194025 281.51756431666706 336.7068798948971Q281.22061016295197 339.9436801703917 281.01274225535144 342.97261253828566Q280.8048743477509 346.0015449061796 280.8048743477509 348.406873551272Q280.8048743477509 350.81220219636424 280.8048743477509 352.05940964196765L280.8048743477509 352.05940964196765Q280.8048743477509 357.90940647015515 283.62593880804434 361.5619425608508Q286.44700326833777 365.2144786515466 290.8122293279497 367.0852898199517Q295.20715080293314 368.9561009883568 300.73049806203403 369.5797047111585Q306.2835407365063 370.23300384933174 311.68810633412113 370.23300384933174Q317.12236734710746 370.23300384933174 321.9330246372921 369.78757261875904Q326.7436819274766 369.37183680355787 329.8617005414852 369.37183680355787L329.8617005414852 369.37183680355787Q329.8617005414852 370.23300384933174 329.2380968186835 371.2723433873346Q328.6144930958817 372.3116829253374 327.78302146547946 373.2619362172257Q326.95154983507723 374.1824940937425 326.120078204675 374.9248794780303Q325.2589111589011 375.63756944694654 325.0510432513006 375.8454373545471L325.0510432513006 375.8454373545471Q323.388099990496 376.26117316974825 319.9434318074009 377.0035585540359Q316.49876362430575 377.7459439383237 312.63835962600945 378.3695476611254Q308.77795562771314 378.9931513839271 305.42237369073257 379.4088871991283Q302.0964871691234 379.82462301432946 300.84927972352 379.82462301432946L300.84927972352 379.82462301432946Q294.3756791725309 381.07183045993287 289.5650218823463 379.6167551067288Q284.75436459216166 378.1616797535249 281.4284780705526 374.59822990894367Q278.07289613357193 371.06447547973397 275.9942170575663 365.92716862046274Q273.91553798156053 360.81955717656314 272.87619844355777 354.96956034837564Q271.80716349018337 349.11956352018814 271.7180772440689 342.8538308767996Q271.59929558258284 336.61779364878254 272.22289930538454 330.76779682059515ZM302.5122229843246 295.04421212866873L302.5122229843246 295.04421212866873Q300.64141181591947 295.04421212866873 297.6124794480255 297.0338049585598Q294.58354708013144 299.023397788451 291.97035052743854 302.0523301563451Q289.35715397474576 305.08126252423904 287.5754290524551 308.52593070733417Q285.82339954553606 311.97059889042936 286.44700326833777 314.4650137816362L286.44700326833777 314.4650137816362Q291.8515688659526 315.0886175044379 297.70156569413996 314.25714587403564Q303.55156252232746 313.4256742436333 308.3622198125121 311.64394932134275Q313.1728771026966 309.89191981442366 316.2908957167052 307.4865911693313Q319.43860974608526 305.08126252423904 319.3198280845992 302.5571522176607Q319.2307418384846 300.0627373264539 315.3406424248169 298.0731444965627Q311.4802384265206 296.0835516666715 302.5122229843246 295.04421212866873ZM342.1852979206618 341.60662343119617L342.1852979206618 341.60662343119617Q342.1852979206618 336.82566155638307 343.01676955106404 330.44114725150854Q343.8482411814663 324.0863283620054 345.7190523498714 317.6127278110162Q347.619558933648 311.13912726002707 350.44062339394156 304.8733946166385Q353.261687854235 298.60766197324983 357.21117809864575 293.70791843695076Q361.19036375842813 288.7784794852802 366.4167568638138 285.7495471173861Q371.6134545538281 282.72061474949214 378.0870551048173 282.72061474949214L378.0870551048173 282.72061474949214Q384.76852356340703 282.72061474949214 390.52943414547985 287.3234041320761Q396.2606493121813 291.9261935146602 400.3289212180781 299.23126569605165Q404.39719312397494 306.536337877443 406.5055676153522 315.50435331963905Q408.58424669135786 324.5020641772065 408.1685108761567 333.0543438042013L408.1685108761567 333.0543438042013Q408.1685108761567 345.58580909097856 403.3578535859722 355.3852961635768Q398.54719629578756 365.2144786515466 391.15303786828156 371.2723433873346Q383.72918402540415 377.33020812312253 375.26599064452375 379.4088871991283Q366.832492679015 381.48756627513393 359.40863883613747 378.25076599963944Q351.98478499326006 375.01396572414484 347.0850414569609 366.0459502819488Q342.1852979206618 357.0779348397529 342.1852979206618 341.60662343119617ZM349.9061059172543 342.4380950615984L349.9061059172543 342.4380950615984Q350.529709640056 355.17742825597617 354.30102739223776 362.06676462216654Q358.0426497290481 368.9561009883568 363.38782449591986 371.15356172584853Q368.7033038474201 373.35102246334026 374.96903649080866 371.2723433873346Q381.23476913419734 369.16396889595734 386.66903014718355 363.8484895444571Q392.07359574479835 358.53301019295685 395.93399974309466 350.4855526272776Q399.8240991567625 342.4380950615984 400.23983497196366 332.4307400813996L400.23983497196366 332.4307400813996Q400.6555707871647 324.91779999240765 399.0817137724747 317.82059571861674Q397.5078567577847 310.7233914448259 394.68679229749125 305.1703487703536Q391.8657278371978 299.6470015112527 387.797455931301 296.4102012357581Q383.72918402540415 293.1734009602636 378.50279092001836 293.1734009602636L378.50279092001836 293.1734009602636Q373.5139611376047 293.1734009602636 369.53477547782234 295.66781585147044Q365.55558981804006 298.1919261580488 362.31878954254546 302.46806597154614Q359.08198926705086 306.7442057850436 356.7954422834446 312.1784667980299Q354.5088952998384 317.6127278110162 352.9350382851484 323.017293408631Q351.36118127045836 328.45155442161735 350.6484913015421 333.5888612808886Q349.9061059172543 338.6964727247882 349.9061059172543 342.4380950615984Z " fill="white" transform="matrix(1.0728569489057127,0,0,1.0728569489057127,0,-27.65077380753236)"/><path d="M533.1780344306743 257.7794549908874L533.1780344306743 257.7794549908874Q533.1780344306743 250.65769925451323 538.622221038036 245.43507838117213Q544.0664076453976 240.18080526011383 551.8528605838334 236.95227599295748Q559.6393135222693 233.72374672580116 568.1221159104839 232.0778298445058Q576.5732660509813 230.4002607154932 582.5871931172529 230.4002607154932L582.5871931172529 230.4002607154932Q588.5694679358072 230.4002607154932 594.7100039929477 232.39435232167799Q600.8188878023709 234.42009617558 605.5034204645193 238.09175691077738Q610.1563008789504 241.76341764597476 612.7201329440452 247.42916998735691Q615.2839650091399 253.09492232873907 614.3977020730578 260.43824379913383L614.3977020730578 260.43824379913383Q613.2898734029551 271.80140072961535 606.9277716117941 280.4741166041333Q600.5973220683503 289.1468324786513 591.3548657349226 295.06580280177116Q582.1124094014946 300.9531208771739 571.318992929923 303.9600844103097Q560.5255764583513 306.96704794344544 550.5234661797102 306.96704794344544L550.5234661797102 306.96704794344544Q550.5234661797102 315.19663234992237 551.1881633817719 323.3312600132476Q551.8528605838334 331.43423542885563 552.6441667767639 339.6638198353325Q553.4038207219772 347.8934042418094 554.100170171756 356.0280319051346Q554.7648673738175 364.1626595684599 554.7648673738175 372.3922439749368L554.7648673738175 372.3922439749368Q554.7648673738175 374.8294670491626 554.3217359057766 376.95016764621624Q553.8786044377354 379.0708682432699 550.3019004456897 380.17869691337256L550.3019004456897 380.17869691337256L545.8389335175619 375.93729571926525Q545.8389335175619 375.71572998524476 545.1742363155003 369.73345516669036Q544.5095391134387 363.7195281004188 543.3067537001843 354.1288970421014Q542.0723160392128 344.5699182315014 540.6163126442208 332.4471073558066Q539.1603092492287 320.32429648011185 537.8309148451054 308.0748766135481Q536.5015204409823 295.8254567469844 535.2670827800108 284.49395206422014Q534.0642973667565 273.1307951337386 533.1780344306743 264.9012107272616L533.1780344306743 264.9012107272616Q533.1780344306743 264.67964499324114 533.1780344306743 263.79338205715896Q533.1780344306743 262.9071191210769 533.1780344306743 261.767638203257Q533.1780344306743 260.6598095331544 533.1780344306743 259.5519808630517Q533.1780344306743 258.44415219294905 533.1780344306743 257.7794549908874ZM545.6173677835413 265.7874736633438L545.6173677835413 265.7874736633438Q545.6173677835413 270.4720063254922 545.7439767744103 274.46018953786177Q545.8389335175619 278.4800249979486 546.4086739764717 282.24664247629755Q546.9784144353818 286.0449122023639 547.8646773714639 290.03309541473345Q548.750940307546 294.05293087482016 550.3019004456897 299.18059500500965L550.3019004456897 299.18059500500965Q557.2020904480434 298.0411140871897 566.7610692586435 294.93919381090234Q576.3517003169608 291.83727353461484 585.1193729346304 286.48804367040486Q593.9186978000172 281.1388138061949 599.9326248662888 274.1436670606896Q605.9465519325603 267.11686806746695 605.9465519325603 258.44415219294905L605.9465519325603 258.44415219294905Q605.9465519325603 253.75961953080068 603.7308945923551 250.08795879560327Q601.4835850044325 246.41629806040592 598.0334900032557 243.97907498618005Q594.5833950020789 241.54185191195424 590.3736460556887 240.18080526011383Q586.1322448615814 238.85141085599062 582.1124094014946 238.85141085599062L582.1124094014946 238.85141085599062Q575.6870031148992 238.85141085599062 569.1033355897176 240.40237099413434Q562.5513203122533 241.98498337999527 557.297047191195 245.30846939030326Q552.074426317854 248.66360764832845 548.8458970506977 253.75961953080068Q545.6173677835413 258.8872836609901 545.6173677835413 265.7874736633438ZM619.3038004692268 306.30235074138386L619.3038004692268 306.30235074138386Q619.3038004692268 298.95902927098916 620.2850201484605 290.697792616795Q621.2978920754115 282.46820821031815 623.6401584064857 274.5867985287306Q625.9824247375599 266.673736599426 629.6540854727572 259.4570241199001Q633.3257462079547 252.20865939265695 638.5483670812959 246.7644727852953Q643.7709879546368 241.28863393021646 650.7977869478594 238.09175691077738Q657.7929336933647 234.86322764362106 666.6872153019032 234.86322764362106L666.6872153019032 234.86322764362106Q674.473668240339 234.86322764362106 680.4875953066106 239.19958558088004Q686.5015223728823 243.535943518139 690.9644893010101 250.53109026364436Q695.3958039814207 257.55788925686693 698.3078107714049 266.4521708654054Q701.1881653136717 275.34645247394394 703.0873001767048 284.3673430733512Q704.986435039738 293.3882336727586 705.6511322417997 301.71277482238713Q706.3158294438612 310.06896821973294 706.3158294438612 316.08289528600454L706.3158294438612 316.08289528600454Q705.429566507779 329.2185780886503 702.517559717795 340.2335602942424Q699.637205175528 351.2485424998346 694.6361500362074 359.6047358971803Q689.6350948968869 367.92927704680886 682.2917734264921 373.27850691101884Q674.9484519560973 378.6277367752288 664.4715579616978 380.40026264739305L664.4715579616978 380.40026264739305Q654.4694476830567 380.40026264739305 647.3476919466826 376.8552109030646Q640.2259362103083 373.27850691101884 635.0982720801188 367.4861455787678Q629.9706079499293 361.6937842465167 626.8686876736421 354.1288970421014Q623.7351151496374 346.5640098376862 622.0891982683419 338.33442543120935Q620.4116291393294 330.10484102473237 619.8418886804194 321.7486476273867Q619.3038004692268 313.42410647775813 619.3038004692268 306.30235074138386ZM627.7549506097241 306.30235074138386L627.7549506097241 306.30235074138386Q627.7549506097241 311.61992835787663 627.9765163437447 318.29855262620976Q628.1980820777652 324.977176894543 629.2109540047162 331.78241015374505Q630.19217368395 338.55599116522984 632.217917537852 345.1396586904113Q634.2120091440366 351.6916739678756 637.6621041452137 356.69272910719616Q641.1121991463905 361.6937842465167 646.3348200197316 364.8273567705215Q651.5574408930726 367.92927704680886 658.9007623634674 367.92927704680886L658.9007623634674 367.92927704680886Q669.5992220918873 368.59397424887055 676.4994120942412 365.27048823856256Q683.3996020965948 361.9153499805373 687.6093510429849 355.0151599781836Q691.8507522370923 348.11496997582987 694.0664095772976 338.33442543120935Q696.31371916522 328.55388088658873 697.6431135693432 316.08289528600454L697.6431135693432 316.08289528600454Q697.6431135693432 311.1767968898356 697.1999821013022 303.8334754194408Q696.756850633261 296.4901539490461 695.5224129722895 288.4821352765897Q694.2879753113181 280.4741166041333 692.1672747142644 272.3394889408081Q690.0782263649279 264.23651352520005 686.6281313637511 257.6528460000186Q683.1780363625743 251.1008307225543 678.366894709557 247.08099526246752Q673.587405304257 243.09281205009793 666.9087810359239 243.09281205009793L666.9087810359239 243.09281205009793Q660.00859103357 243.09281205009793 654.4694476830567 246.32134131725425Q648.8986520848263 249.54987058441057 644.5622941475673 254.77249145775167Q640.2259362103083 259.99511233109274 636.997406943152 266.673736599426Q633.7688776759957 273.3523608677591 631.7431338220937 280.3475076132645Q629.7490422159088 287.37430660648704 628.7678225366752 294.14788761797183Q627.7549506097241 300.9531208771739 627.7549506097241 306.30235074138386ZM725.4654393127786 363.2763966323777L725.4654393127786 363.2763966323777Q726.5732679828812 360.58595557641416 728.9155343139554 359.9212583743526Q731.2261483973124 359.2565611722909 733.9165894532761 363.2763966323777L733.9165894532761 363.2763966323777Q733.9165894532761 363.7195281004188 736.0372900503297 364.47918204563206Q738.126338399666 365.27048823856256 741.3548676668223 366.28336016551356Q744.5833969339786 367.2645798447473 748.9197548712376 368.2774517716983Q753.2877650562137 369.2586714509321 757.4975140026039 370.0499776438625Q761.7389151967112 370.841283836793 765.7270984090809 371.3793720479858Q769.7469338691677 371.9491125068957 772.6272884114345 371.9491125068957L772.6272884114345 371.9491125068957Q780.1921756158498 371.9491125068957 786.5542774070108 368.72058323973937Q792.8847269504546 365.49205397258305 797.4426506217341 360.36438984239356Q802.0005742930135 355.2367257122042 804.4694496149567 348.6847104347399Q806.9066726891825 342.1326951572756 806.9066726891825 335.23250515492185L806.9066726891825 335.23250515492185Q806.9066726891825 333.20676130101987 806.2419754871208 328.2057061616993Q805.5772782850594 323.20465102237875 804.0263181469157 318.2035958830582Q802.4437057610547 313.20254074373753 799.9115259436772 309.18270528365076Q797.3476938785824 305.16286982356394 793.7709898865368 305.16286982356394L793.7709898865368 305.16286982356394Q770.6331968052497 307.8533108795276 755.8199448735915 307.2835704206177Q741.0383451896502 306.74548220942495 732.3656293151322 303.8334754194408Q723.6612611928971 300.9531208771739 720.2111661917203 295.95206573785333Q716.7610711905435 290.9193583508155 716.539505456523 284.49395206422014L716.539505456523 284.49395206422014Q716.539505456523 276.4542811440465 720.5593409166096 269.0160029305001Q724.5475241289793 261.5460724692365 730.7830169292714 255.7853633847027Q737.0185097295633 249.99300205245163 744.7100059248477 246.5429070512748Q752.3698498724146 243.09281205009793 759.93473707683 243.09281205009793L759.93473707683 243.09281205009793Q766.1702298771219 243.09281205009793 772.975463136324 244.64377218824166Q779.7490441478088 246.19473232638538 785.5414054800598 249.4232615935417Q791.333766812311 252.65179086069801 795.0054275475082 257.8744117340391Q798.6770882827058 263.1286848550974 798.6770882827058 270.4720063254922L798.6770882827058 270.4720063254922Q793.3278584184958 270.4720063254922 788.8965437380849 267.46504279235637Q784.4335768099571 264.45807925922065 779.9706098818293 261.1029410011954Q775.5392952014187 257.7794549908874 770.6331968052497 254.77249145775167Q765.7270984090809 251.7655279246159 759.2700398747683 251.7655279246159L759.2700398747683 251.7655279246159Q753.9524622582754 251.7655279246159 748.4766234031966 254.42431673286228Q743.032436795835 257.11475778882584 738.696078858576 261.324506735216Q734.359720921317 265.5659079293233 731.5743231222017 270.78852880266436Q728.7889253230866 276.0111496760055 728.7889253230866 281.581945274236L728.7889253230866 281.581945274236Q728.7889253230866 283.7976026144413 728.9155343139554 286.36143467953605Q729.0104910571071 288.9252667446308 729.8967539931892 291.26753307570493Q730.7830169292714 293.6097994067792 732.6821517923044 295.1607595449228Q734.5812866553375 296.7117196830666 738.126338399666 296.7117196830666L738.126338399666 296.7117196830666L798.0123910806441 296.7117196830666Q801.779008558993 296.7117196830666 804.5644063581084 299.0539860141407Q807.3498041572235 301.396252345215 809.2489390202567 304.94130408954345Q811.1480738832898 308.5180080815892 812.3508592965442 312.98097500971704Q813.5852969575157 317.4122896901277 814.3766031504462 321.653690884235Q815.1362570956595 325.86343983062505 815.35782282968 329.53510056582246Q815.5793885637005 333.20676130101987 815.5793885637005 335.23250515492185L815.5793885637005 335.23250515492185Q815.5793885637005 343.9052210294398 813.1421654894747 351.5650649770068Q810.7049424152489 359.2565611722909 805.7988440190799 365.3654449817141Q800.8927456229109 371.5059810388546 793.5494241525163 375.3992075080725Q786.2061026821215 379.2924339772904 776.6471238715213 380.17869691337256L776.6471238715213 380.17869691337256Q771.962591209373 380.62182838141365 764.5243129958266 379.9571311793521Q757.0543825345629 379.2924339772904 749.4894953301476 377.39329911425733Q741.9246081257323 375.49416425122416 735.2459838573992 372.04406925004736Q728.5673595890661 368.59397424887055 725.4654393127786 363.2763966323777Z " fill="#080a52" transform="matrix(1.0728569489057127,0,0,1.0728569489057127,0,-27.65077380753236)"/></g></svg>